<svg xmlns:xlink="http://www.w3.org/1999/xlink" xmlns="http://www.w3.org/2000/svg" class="vector-icon" aria-label="My Nintendo" width="202"  height="32" ><defs><symbol id="alps_icon_mynintendo" viewBox="0 0 202 32"><path d="M111.5 25.7h3.7V12.9h-3.7v12.8zm1.9-18.9c-1.2 0-2.2 1-2.2 2.2s1 2.2 2.2 2.2 2.2-1 2.2-2.2c-.1-1.2-1-2.2-2.2-2.2zm11.4 5.7c-1.4 0-2.6.6-3.4 1.5v-1.1h-3.7v12.8h3.7v-6.2c0-2.5 1.4-3.6 2.9-3.6 1.1 0 2.7.7 2.7 3.2v6.6h3.7v-6.9c0-4.3-3-6.3-5.9-6.3zm-43.5 8.3l-3.1-8H74l5.6 12.6c-.4 1.7-1.4 2.3-2.9 2.3h-.5v3.2h.7c2.8 0 4.3-.5 5.2-2.7.2-.5 6.3-15.4 6.3-15.4h-4.2l-2.9 8zm-46.9-12C31.3 3.3 25.9 0 19.6 0c-7.4 0-15 4.9-15 13.1 0 5.8 5 8.1 5.2 8.2.8.4 1.7.1 2.1-.7l2.8-5.3 2 4c.3.5.8.9 1.5.9s1.2-.3 1.5-.9l2-4 2.8 5.2c.4.8 1.4 1.1 2.2.7.8-.4 1.1-1.4.7-2.2l-4.2-8c-.3-.5-.9-.9-1.5-.9s-1.2.3-1.5.9l-2 3.9-2-3.9c-.3-.5-.8-.9-1.4-.9-.6 0-1.2.3-1.5.9l-3.5 6.4c-.9-.8-2-2.2-2-4.4 0-6.2 6-9.9 11.7-9.9 5.3 0 9.9 2.9 12.3 7.9.3.6.9 1 1.6.9H33.7c4.1 0 6.9 3.7 6.9 7 0 4-3.1 7.1-7.2 7.1-1.6 0-3.1-.6-3.9-1.2-.6-.5-1.4-.5-2 0-1.4 1.1-5.4 3.7-11 3.7-6.5.2-11.3-3.5-13.2-5.6-.6-.7-1.6-.8-2.3-.2-.7.6-.8 1.6-.2 2.3.6.7 6.2 7 15.8 7 5.6 0 9.8-2.1 12.1-3.7 1.4.8 3.2 1.2 4.8 1.2 5.9 0 10.4-4.6 10.4-10.4.2-4.8-3.7-10-9.5-10.3zM70 7.5c-.9 0-2 .4-2.8 2.3-.6 1.3-4.5 10.2-4.5 10.2h-.1s-3.9-8.9-4.5-10.2c-.8-1.9-1.9-2.3-2.8-2.3-1.3 0-2.5.9-2.5 2.9v15.3h4V15.6h.1s3.2 7.2 3.7 8.5c.6 1.5 1.4 1.7 2.1 1.7.7 0 1.4-.2 2.1-1.7.6-1.2 3.7-8.5 3.7-8.5h.1v10.1h4V10.4c-.1-2-1.2-2.9-2.6-2.9zm34.9 11.3l-7.6-9.9c-.8-1-1.5-1.3-2.1-1.3-1.4 0-2.2.9-2.2 2.1v16.1h4V14.6l7.6 9.9c.8 1 1.5 1.3 2.1 1.3 1.4 0 2.2-.9 2.2-2.1V7.6h-4v11.2zm74.9-5c-.4-.4-1.7-1.3-3.5-1.3-3.7 0-6.8 3.1-6.8 6.8s3.1 6.8 6.8 6.8c1.8 0 3.1-.9 3.4-1.3h.1v.9h3.7V7.6h-3.7v6.2zm-3.4 9c-1.9 0-3.4-1.6-3.4-3.5s1.5-3.5 3.4-3.5c2 0 3.4 1.5 3.4 3.5 0 1.9-1.5 3.5-3.4 3.5zm15.2-10.3c-3.8 0-6.8 3.1-6.8 6.8 0 3.8 3.1 6.8 6.8 6.8 3.8 0 6.8-3.1 6.8-6.8 0-3.8-3-6.8-6.8-6.8zm0 10.2c-1.9 0-3.4-1.5-3.4-3.4s1.5-3.4 3.4-3.4 3.4 1.5 3.4 3.4-1.5 3.4-3.4 3.4zm-54-13.4h-3.7v3.5h-2.5v3h2.5v9.8h3.7v-9.8h2.5v-3h-2.5V9.3zm9.5 3.2c-3.9 0-6.7 3.4-6.7 6.8 0 3.5 2.9 6.8 6.7 6.8 2.8 0 5.1-1.6 6.1-3.5l-3-1.1c-.8 1-1.8 1.4-3.1 1.4s-2.8-.9-3.2-2.5h7.6c1.6 0 2.5-.3 2.5-1.5-.1-2.6-2.5-6.4-6.9-6.4zm-3.1 5.4c.6-1.6 1.9-2.3 3.2-2.3 1.9 0 2.9 1.2 3.3 2.3H144zm18.4-5.4c-1.4 0-2.6.6-3.4 1.5v-1.1h-3.7v12.8h3.7v-6.2c0-2.5 1.4-3.6 2.9-3.6 1.1 0 2.7.7 2.7 3.2v6.6h3.7v-6.9c-.1-4.3-3-6.3-5.9-6.3zM201 24.2l-.3 1-.3-1h-.5v1.5h.4v-1.1l.3 1.1h.3l.3-1.1v1.1h.4v-1.5h-.6zm-2.2.3h.3v1.2h.4v-1.2h.3v-.3h-1v.3z"></path></symbol></defs><use xlink:href="#alps_icon_mynintendo" fill="#FFFFFF"></use></svg>