<svg xmlns:xlink="http://www.w3.org/1999/xlink" xmlns="http://www.w3.org/2000/svg" style="width:0;height:0;position:absolute;visibility:hidden;" width="24.8"  height="24.8" ><symbol id="alps_icon_close" viewBox="0 0 24.8 24.8"><path fill-rule="evenodd" clip-rule="evenodd" d="M15.6 12.4l8.6-8.6c.9-.9.9-2.3 0-3.1-.9-.9-2.3-.9-3.1 0l-8.6 8.6L3.8.6C2.9-.3 1.5-.3.7.6c-.9.9-.9 2.3 0 3.1l8.6 8.6L.6 21c-.9.9-.9 2.3 0 3.1.9.9 2.3.9 3.1 0l8.6-8.6 8.6 8.6c.9.9 2.3.9 3.1 0 .9-.9.9-2.3 0-3.1l-8.4-8.6z"></path></symbol><symbol id="alps_icon_guest" viewBox="0 0 24 28.5"><path d="M14.8 18.8H9.2c-5.1 0-9.2 4.4-9.2 9.7h24c0-5.4-4.2-9.7-9.2-9.7zM12 18c5 0 9-4 9-9s-4-9-9-9-9 4-9 9 4 9 9 9z"></path></symbol><symbol id="alps_icon_link" viewBox="0 0 13 13"><path d="M6.5 0C2.9 0 0 2.9 0 6.5S2.9 13 6.5 13 13 10.1 13 6.5 10.1 0 6.5 0zm-.4 9c-.1.1-.2.1-.4.1s-.2 0-.3-.1c-.2-.2-.2-.5 0-.7l1.8-1.8-1.8-1.8c-.2-.2-.2-.5 0-.7s.5-.2.7 0l2.5 2.5L6.1 9z"></path></symbol><symbol id="alps_icon_logo_mynintendo" viewBox="0 0 14 14"><path d="M12.7 3.1L7.7.2c-.4-.2-1-.2-1.3 0l-5 2.9c-.4.2-.7.7-.7 1.2v5.5c0 .4.3 1 .7 1.2l5 2.9c.4.2 1 .2 1.3 0l5-2.9c.4-.2.7-.7.7-1.2V4.3c-.1-.5-.4-1-.7-1.2z"></path><path d="M9.2 9.3c-.3 0-.5-.3-.5-.7V6.5c0-.2 0-.4-.1-.6-.2-.3-.7-.3-.9 0-.1.1-.1.3-.1.6v2.4c-.1.2-.4.4-.6.4-.2 0-.5-.2-.6-.5V6.5c0-.2 0-.4-.1-.6-.2-.3-.7-.3-.9 0-.1.1-.1.3-.1.6v2.2c0 .4-.2.7-.6.7-.3 0-.6-.3-.6-.7V6.5c.1-.5.2-1.1.6-1.5.3-.3.7-.4 1.2-.4.1 0 .7 0 1.1.4.3-.3.7-.4 1.1-.4.2 0 .8 0 1.2.4.5.4.5 1 .5 1.5v2.1c0 .4-.3.7-.6.7z"></path></symbol><symbol id="alps_icon_mii_none" viewBox="0 0 30 30"><path d="M17.3 20.3h-4.6c-4.2 0-7.6 5.4-7.6 9.6H25c-.1-4.1-3.5-9.6-7.7-9.6zm-2.3-.6c4.1 0 7.4-3.2 7.4-7.1 0-3.9-3.3-7.1-7.4-7.1s-7.4 3.2-7.4 7.1c0 4 3.3 7.1 7.4 7.1z"></path></symbol><symbol id="alps_icon_mynintendo" viewBox="0 0 202 32"><path d="M111.5 25.7h3.7V12.9h-3.7v12.8zm1.9-18.9c-1.2 0-2.2 1-2.2 2.2s1 2.2 2.2 2.2 2.2-1 2.2-2.2c-.1-1.2-1-2.2-2.2-2.2zm11.4 5.7c-1.4 0-2.6.6-3.4 1.5v-1.1h-3.7v12.8h3.7v-6.2c0-2.5 1.4-3.6 2.9-3.6 1.1 0 2.7.7 2.7 3.2v6.6h3.7v-6.9c0-4.3-3-6.3-5.9-6.3zm-43.5 8.3l-3.1-8H74l5.6 12.6c-.4 1.7-1.4 2.3-2.9 2.3h-.5v3.2h.7c2.8 0 4.3-.5 5.2-2.7.2-.5 6.3-15.4 6.3-15.4h-4.2l-2.9 8zm-46.9-12C31.3 3.3 25.9 0 19.6 0c-7.4 0-15 4.9-15 13.1 0 5.8 5 8.1 5.2 8.2.8.4 1.7.1 2.1-.7l2.8-5.3 2 4c.3.5.8.9 1.5.9s1.2-.3 1.5-.9l2-4 2.8 5.2c.4.8 1.4 1.1 2.2.7.8-.4 1.1-1.4.7-2.2l-4.2-8c-.3-.5-.9-.9-1.5-.9s-1.2.3-1.5.9l-2 3.9-2-3.9c-.3-.5-.8-.9-1.4-.9-.6 0-1.2.3-1.5.9l-3.5 6.4c-.9-.8-2-2.2-2-4.4 0-6.2 6-9.9 11.7-9.9 5.3 0 9.9 2.9 12.3 7.9.3.6.9 1 1.6.9H33.7c4.1 0 6.9 3.7 6.9 7 0 4-3.1 7.1-7.2 7.1-1.6 0-3.1-.6-3.9-1.2-.6-.5-1.4-.5-2 0-1.4 1.1-5.4 3.7-11 3.7-6.5.2-11.3-3.5-13.2-5.6-.6-.7-1.6-.8-2.3-.2-.7.6-.8 1.6-.2 2.3.6.7 6.2 7 15.8 7 5.6 0 9.8-2.1 12.1-3.7 1.4.8 3.2 1.2 4.8 1.2 5.9 0 10.4-4.6 10.4-10.4.2-4.8-3.7-10-9.5-10.3zM70 7.5c-.9 0-2 .4-2.8 2.3-.6 1.3-4.5 10.2-4.5 10.2h-.1s-3.9-8.9-4.5-10.2c-.8-1.9-1.9-2.3-2.8-2.3-1.3 0-2.5.9-2.5 2.9v15.3h4V15.6h.1s3.2 7.2 3.7 8.5c.6 1.5 1.4 1.7 2.1 1.7.7 0 1.4-.2 2.1-1.7.6-1.2 3.7-8.5 3.7-8.5h.1v10.1h4V10.4c-.1-2-1.2-2.9-2.6-2.9zm34.9 11.3l-7.6-9.9c-.8-1-1.5-1.3-2.1-1.3-1.4 0-2.2.9-2.2 2.1v16.1h4V14.6l7.6 9.9c.8 1 1.5 1.3 2.1 1.3 1.4 0 2.2-.9 2.2-2.1V7.6h-4v11.2zm74.9-5c-.4-.4-1.7-1.3-3.5-1.3-3.7 0-6.8 3.1-6.8 6.8s3.1 6.8 6.8 6.8c1.8 0 3.1-.9 3.4-1.3h.1v.9h3.7V7.6h-3.7v6.2zm-3.4 9c-1.9 0-3.4-1.6-3.4-3.5s1.5-3.5 3.4-3.5c2 0 3.4 1.5 3.4 3.5 0 1.9-1.5 3.5-3.4 3.5zm15.2-10.3c-3.8 0-6.8 3.1-6.8 6.8 0 3.8 3.1 6.8 6.8 6.8 3.8 0 6.8-3.1 6.8-6.8 0-3.8-3-6.8-6.8-6.8zm0 10.2c-1.9 0-3.4-1.5-3.4-3.4s1.5-3.4 3.4-3.4 3.4 1.5 3.4 3.4-1.5 3.4-3.4 3.4zm-54-13.4h-3.7v3.5h-2.5v3h2.5v9.8h3.7v-9.8h2.5v-3h-2.5V9.3zm9.5 3.2c-3.9 0-6.7 3.4-6.7 6.8 0 3.5 2.9 6.8 6.7 6.8 2.8 0 5.1-1.6 6.1-3.5l-3-1.1c-.8 1-1.8 1.4-3.1 1.4s-2.8-.9-3.2-2.5h7.6c1.6 0 2.5-.3 2.5-1.5-.1-2.6-2.5-6.4-6.9-6.4zm-3.1 5.4c.6-1.6 1.9-2.3 3.2-2.3 1.9 0 2.9 1.2 3.3 2.3H144zm18.4-5.4c-1.4 0-2.6.6-3.4 1.5v-1.1h-3.7v12.8h3.7v-6.2c0-2.5 1.4-3.6 2.9-3.6 1.1 0 2.7.7 2.7 3.2v6.6h3.7v-6.9c-.1-4.3-3-6.3-5.9-6.3zM201 24.2l-.3 1-.3-1h-.5v1.5h.4v-1.1l.3 1.1h.3l.3-1.1v1.1h.4v-1.5h-.6zm-2.2.3h.3v1.2h.4v-1.2h.3v-.3h-1v.3z"></path></symbol><symbol id="alps_icon_point_multiplication" viewBox="0 0 8 8"><path d="M8 1.2L6.8 0 4 2.8 1.2 0 0 1.2 2.8 4 0 6.8 1.2 8 4 5.2 6.8 8 8 6.8 5.2 4z"></path></symbol><symbol id="alps_icon_setting" viewBox="0 0 25.7 25.5"><path d="M22.3 12.8c0-.6-.1-1.2-.2-1.8l3.5-2-3.1-5.3-3.5 2c-.9-.8-2-1.4-3.1-1.8V0H9.8v4c-1.2.4-2.3 1-3.2 1.7l-3.5-2L0 9l3.5 2c-.1.6-.2 1.2-.2 1.8 0 .6.1 1.2.2 1.8l-3.5 2 3.1 5.3 3.5-2c.9.8 2 1.4 3.1 1.8v4h6.2v-4c1.2-.4 2.2-1 3.1-1.8l3.5 2 3.1-5.3-3.5-2c.2-.6.2-1.2.2-1.8zm-9.5 4.5c-2.5 0-4.6-2-4.6-4.5s2.1-4.5 4.6-4.5c2.5 0 4.6 2 4.6 4.5s-2 4.5-4.6 4.5z"></path></symbol></svg>