<svg xmlns:xlink="http://www.w3.org/1999/xlink" xmlns="http://www.w3.org/2000/svg" viewBox="0 0 32 32" width="32"  height="32" ><path d="M31.643 13.52h-2.768a.7.7 0 000 1.389h2.768a.7.7 0 000-1.389zM28.995 19.576a.586.586 0 00-.442-.247.575.575 0 00-.452.198.777.777 0 00-.04.942l2.448 3.356a.581.581 0 00.467.247.568.568 0 00.426-.199.775.775 0 00.04-.941zM28.528 9.1a.58.58 0 00.467-.248l2.446-3.355a.776.776 0 00-.039-.942.58.58 0 00-.45-.198.587.587 0 00-.444.247L28.062 7.96a.771.771 0 00.039.94.565.565 0 00.427.2zM0 11.72v5.442a2.615 2.615 0 002.476 2.722H4.44l.824 6.27a2.36 2.36 0 002.409 2.29h1.205a2.36 2.36 0 002.41-2.29l-.824-6.27h2.31V8.998h-10.3A2.615 2.615 0 000 11.72zM22.896 10.812V4.916a1.386 1.386 0 00-1.402-1.36l-7.556 5.33v11.11l7.556 5.33a1.386 1.386 0 001.402-1.36V10.811zM24.047 10.812h-.15v7.257h.15a3.542 3.542 0 003.507-3.555v-.146a3.542 3.542 0 00-3.507-3.556z"></path></svg>